<svg width="1332" height="1292" xmlns="http://www.w3.org/2000/svg" xmlns:xlink="http://www.w3.org/1999/xlink" xml:space="preserve" overflow="hidden"><g transform="translate(-1332 -494)"><path d="M1890.8 501.687C1868.47 499.966 1830.39 501.401 1810.06 506.849 1789.74 512.298 1782.87 525.777 1768.84 534.381 1754.81 542.984 1742.79 549.867 1725.9 558.471 1709.01 567.075 1686.11 577.685 1667.5 586.002 1648.89 594.319 1634.29 600.628 1614.25 608.371 1594.21 616.114 1568.73 621.564 1547.26 632.461 1525.79 643.359 1504.03 661.14 1485.42 673.758 1466.81 686.377 1453.07 691.826 1435.61 708.173 1418.15 724.519 1394.96 749.757 1380.64 771.839 1366.33 793.922 1356.6 819.159 1349.73 840.668 1342.86 862.177 1337.42 884.832 1339.42 900.892 1341.42 916.952 1353.16 930.719 1361.75 937.028 1370.34 943.337 1380.64 943.337 1390.95 938.748 1401.26 934.16 1423.59 909.496 1423.59 909.496 1436.76 898.025 1451.36 880.531 1469.96 869.92 1488.57 859.308 1514.91 852.139 1535.24 845.83 1555.56 839.521 1573.6 835.792 1591.92 832.064 1610.24 828.336 1627.13 825.181 1645.17 823.461 1663.2 821.74 1681.53 822.6 1700.13 821.74 1718.74 820.879 1736.78 818.585 1756.82 818.298 1776.86 818.011 1799.76 820.879 1820.37 820.019 1840.98 819.159 1858.73 817.725 1880.49 813.136 1902.25 808.548 1934.88 803.099 1950.91 792.488 1966.95 781.877 1970.38 766.39 1976.68 749.47 1982.98 732.549 1986.7 715.055 1988.7 690.965 1990.71 666.875 1990.13 629.593 1988.7 604.93 1987.27 580.266 1987.56 557.61 1980.11 542.984 1972.67 528.358 1958.93 522.909 1944.04 517.174 1929.16 511.438 1913.13 503.408 1890.8 501.687Z" stroke="#733303" stroke-width="13.75" stroke-miterlimit="8" fill="#310101" fill-rule="evenodd"/><path d="M552.643 0.687201C530.278-1.03369 492.145 0.400687 471.788 5.84952 451.431 11.2984 444.55 24.7775 430.5 33.3809 416.451 41.9847 404.409 48.8675 387.492 57.4709 370.576 66.0747 347.638 76.6854 329.001 85.0023 310.365 93.3192 295.742 99.6283 275.672 107.371 255.601 115.115 230.083 120.564 208.579 131.461 187.075 142.359 165.285 160.14 146.648 172.758 128.011 185.377 114.249 190.826 96.7589 207.173 79.2689 223.52 56.0446 248.757 41.7088 270.839 27.373 292.922 17.6243 318.159 10.7431 339.668 3.86182 361.177-1.58576 383.833 0.421184 399.893 2.42813 415.953 14.1837 429.719 22.7851 436.028 31.3865 442.337 41.7088 442.337 52.0307 437.748 62.3526 433.16 84.7165 408.496 84.7165 408.496 97.9054 397.025 112.528 379.531 131.165 368.92 149.802 358.309 176.18 351.139 196.537 344.83 216.894 338.521 234.957 334.792 253.308 331.064 271.658 327.336 288.574 324.182 306.637 322.461 324.701 320.74 343.051 321.6 361.688 320.74 380.324 319.88 398.388 317.585 418.458 317.298 438.528 317.012 461.466 319.88 482.11 319.019 502.754 318.159 520.53 316.725 542.321 312.136 564.111 307.548 596.798 302.099 612.854 291.488 628.91 280.877 632.351 265.39 638.658 248.47 644.966 231.55 648.694 214.056 650.701 189.966 652.708 165.876 652.134 128.593 650.701 103.93 649.267 79.2666 649.554 56.6103 642.099 41.9843 634.645 27.3583 620.882 21.9095 605.973 16.1738 591.063 10.4381 575.007 2.40809 552.643 0.687201Z" stroke="#733303" stroke-width="13.75" stroke-miterlimit="8" fill="#310101" fill-rule="evenodd" transform="matrix(-1 0 0 1 2657 501)"/><path d="M2001.86 1066 1937.59 1069.44 1894.73 1071.73C1882.46 1072.49 1871.52 1071.73 1863.93 1074.02 1856.34 1076.31 1853.22 1080.13 1849.2 1085.48 1845.18 1090.82 1842.51 1096.74 1839.83 1106.1 1837.15 1115.45 1832.69 1130.73 1833.13 1141.61 1833.58 1152.49 1838.71 1161.28 1842.51 1171.4 1846.3 1181.52 1851.88 1192.78 1855.9 1202.33 1859.92 1211.87 1863.49 1217.41 1866.61 1228.68 1869.74 1239.94 1872.19 1256.17 1874.65 1269.92 1877.1 1283.67 1880.9 1295.12 1881.34 1311.16 1881.79 1327.2 1878.44 1351.45 1877.32 1366.15 1876.21 1380.85 1876.43 1392.69 1874.65 1399.37 1872.86 1406.06 1873.31 1403.57 1866.61 1406.25 1859.92 1408.92 1846.08 1413.5 1834.47 1415.41 1822.87 1417.32 1809.92 1417.51 1796.98 1417.7 1784.03 1417.89 1772.65 1418.08 1756.8 1416.56 1740.95 1415.03 1721.54 1411.02 1701.9 1408.54 1682.26 1406.06 1661.72 1403.38 1638.96 1401.66 1616.19 1399.95 1586.73 1399.18 1565.3 1398.23 1543.88 1397.27 1526.24 1395.17 1510.4 1395.94 1494.55 1396.7 1480.27 1400.33 1470.22 1402.81 1460.18 1405.29 1455.49 1407.39 1450.14 1410.83 1444.78 1414.27 1441.88 1418.08 1438.08 1423.43 1434.29 1428.78 1430.05 1435.27 1427.37 1442.91 1424.69 1450.54 1422.24 1457.61 1422.01 1469.26 1421.79 1480.9 1424.25 1497.9 1426.03 1512.79 1427.82 1527.68 1429.38 1543.53 1432.73 1558.61 1436.07 1573.7 1440.32 1591.65 1446.12 1603.29 1451.92 1614.94 1457.72 1618.76 1467.55 1628.5 1477.37 1638.23 1492.54 1652.55 1505.04 1661.72 1517.54 1670.88 1528.7 1676.8 1542.54 1683.48 1556.38 1690.17 1569.77 1695.32 1588.07 1701.81 1606.37 1708.31 1634.27 1717.28 1652.35 1722.44 1670.43 1727.59 1696.54 1732.75 1696.54 1732.75 1715.29 1737.33 1741.18 1744.77 1764.84 1749.93 1788.49 1755.09 1838.49 1763.68 1838.49 1763.68 1861.25 1767.88 1880.45 1772.65 1901.43 1775.13 1922.41 1777.62 1964.37 1778.57 1964.37 1778.57 1987.8 1779.14 2018.38 1779.14 2042.04 1778.57 2065.7 1778 2084.67 1777.62 2106.32 1775.13 2127.97 1772.65 2144.48 1768.64 2171.94 1763.68 2199.39 1758.71 2240.23 1752.22 2271.03 1745.35 2301.83 1738.47 2334.42 1728.74 2356.74 1722.44 2379.06 1716.13 2384.64 1714.61 2404.95 1707.54 2425.26 1700.48 2460.08 1689.02 2478.6 1680.05 2497.13 1671.07 2503.38 1664.01 2516.1 1653.7 2528.82 1643.39 2544.67 1632.31 2554.93 1618.18 2565.2 1604.06 2572.56 1587.25 2577.7 1568.92 2582.83 1550.59 2583.95 1525.39 2585.73 1508.21 2587.52 1491.02 2590.2 1479.38 2588.41 1465.82 2586.63 1452.26 2579.26 1435.84 2575.02 1426.87 2570.78 1417.89 2568.77 1416.56 2562.97 1411.97 2557.17 1407.39 2551.58 1401.86 2540.2 1399.37 2528.82 1396.89 2509.4 1397.46 2494.67 1397.08 2479.94 1396.7 2468.56 1396.7 2451.82 1397.08 2435.08 1397.46 2409.86 1398.42 2394.24 1399.37 2378.61 1400.33 2377.5 1400.33 2358.08 1402.81 2338.66 1405.29 2298.71 1411.97 2277.73 1414.27 2256.75 1416.56 2247.82 1416.18 2232.2 1416.56 2216.57 1416.94 2198.72 1418.28 2183.99 1416.56 2169.26 1414.84 2152.3 1410.26 2143.81 1406.25 2135.33 1402.24 2135.11 1400.52 2133.1 1392.5 2131.09 1384.48 2132.66 1369.78 2131.76 1358.13 2130.87 1346.48 2127.52 1336.56 2127.74 1322.62 2127.97 1308.68 2130.42 1290.35 2133.1 1274.5 2135.78 1258.65 2138.01 1245.29 2143.81 1227.53 2149.62 1209.77 2162.79 1183.62 2167.92 1167.96 2173.05 1152.3 2175.28 1145.24 2174.62 1133.59 2173.95 1121.94 2168.37 1107.81 2163.9 1098.08 2159.44 1088.34 2160.78 1079.94 2147.83 1075.16 2134.89 1070.39 2109.89 1070.58 2086.23 1069.44 2062.57 1068.29 2034.23 1068.29 2001.86 1066Z" stroke="#733303" stroke-width="13.75" stroke-miterlimit="8" fill="#310101" fill-rule="evenodd"/></g></svg>