<svg id="enIGlHepgW21" xmlns="http://www.w3.org/2000/svg" xmlns:xlink="http://www.w3.org/1999/xlink" viewBox="0 0 95 70" shape-rendering="geometricPrecision" text-rendering="geometricPrecision" style="background-color:transparent"><ellipse rx="9.6" ry="9.6" transform="matrix(2.067334 0 0 2.067359 21.846406 21.846646)" fill="#09fa00" stroke="#000"/><ellipse rx="9.6" ry="9.6" transform="matrix(2.067334 0 0 2.067359 68.153594 21.846646)" fill="#09fa00" stroke="#000"/><path d="M2.93946,66.20109c16.35496,13.08396,42.93055,8.26072,61.48447,3.20056c4.80386-1.31014,17.15385-6.93414,16.33971,2.02141-.90223,9.92454-13.63557,13.40322-21.73013,13.9814-21.52943,1.53782-40.38323-3.661-55.9256-19.20337" transform="matrix(1.183365-.112334 0.094534 0.995848-11.736689-13.001048)" fill="#09fa00" stroke="#000" stroke-width="2" stroke-linecap="round" stroke-linejoin="round"/><line x1="-4.823517" y1="0" x2="4.823517" y2="0" transform="matrix(.427171 0.375081-.659805 0.751437-3.197601 53.030979)" fill="rgba(255,255,255,0)" stroke="rgba(255,255,255,0)" stroke-width="10"/><path d="M22.00601,69.04371c-8.85595,0-7.6522,7.20059,0,8.73103" transform="matrix(2.346066 0.375413-.228541 1.428218-21.311755-54.241509)" fill="rgba(255,255,255,0)" stroke="rgba(255,255,255,0)" stroke-width="3"/></svg>
